<?xml version="1.0" encoding="utf-8"?>
<!-- Generator: Adobe Illustrator 28.0.0, SVG Export Plug-In . SVG Version: 6.00 Build 0)  -->
<svg version="1.1" id="Layer_1" xmlns="http://www.w3.org/2000/svg" xmlns:xlink="http://www.w3.org/1999/xlink" x="0px" y="0px"
	 viewBox="0 0 50 50" style="enable-background:new 0 0 50 50;" xml:space="preserve">
<style type="text/css">
	.st0{clip-path:url(#SVGID_00000137814639361695830660000004983058609137167016_);}
	.st1{fill:#F7941D;}
</style>
<g>
	<defs>
		<rect id="SVGID_1_" y="0" width="50" height="50"/>
	</defs>
	<clipPath id="SVGID_00000096028537194701511180000000549865392161908374_">
		<use xlink:href="#SVGID_1_"  style="overflow:visible;"/>
	</clipPath>
	<g style="clip-path:url(#SVGID_00000096028537194701511180000000549865392161908374_);">
		<path class="st1" d="M38.2,43c-0.5,0.3-1,0.5-1.5,0.8c-4.3,2.4-9.2,5.1-13.9,4.7L6.1,47c0,0,0,0-0.1,0H1.5v-8.2h4.6
			c0.2,0,0.3-0.1,0.5-0.2c0,0,1.3-1.1,3.3-2.1c0.4-0.2,0.5-0.6,0.3-1c-0.2-0.4-0.6-0.5-1-0.3c-1.7,0.9-2.9,1.8-3.4,2.2H0.7
			C0.3,37.3,0,37.6,0,38v9.7c0,0.4,0.3,0.7,0.7,0.7H6L22.6,50c0.4,0,0.7,0,1.1,0c4.8,0,9.5-2.6,13.6-4.9c0.5-0.3,1-0.6,1.5-0.8
			c0.4-0.2,0.5-0.6,0.3-1C39,42.9,38.5,42.8,38.2,43z"/>
		<path class="st1" d="M49.4,34.8c-0.8-1-2.1-1.4-3.3-0.9c0-0.5-0.2-0.9-0.5-1.3c-0.7-1-2.1-1.4-3.2-0.8l-1.7,0.9
			c0-0.4-0.1-0.8-0.4-1.2c-0.7-1.2-2.2-1.6-3.3-0.9l-1.3,0.7c0-0.5-0.2-1-0.5-1.4c-0.8-1-2.1-1.4-3.3-0.8l-9.4,4.9
			c-1.1-0.4-4.4-1.5-8.4-0.8c-0.7,0.1-1.4,0.3-2.1,0.5c-0.4,0.1-0.6,0.5-0.5,0.9c0.1,0.4,0.5,0.6,0.9,0.5c0.6-0.2,1.3-0.4,1.9-0.5
			c4.2-0.8,7.8,0.8,7.8,0.8c0.1,0,0.2,0.1,0.3,0.1h9.8c0.7,0,1.3,0.6,1.3,1.3c0,0.6-0.5,1.2-1.1,1.3L20,39.8c-0.4,0-0.6,0.4-0.6,0.7
			c0,0.4,0.3,0.7,0.6,0.7l5.3,0.6c5.1,0.6,10.2-0.4,14.7-2.9l6.6-3.7c0.6-0.3,1.3-0.1,1.7,0.4c0.5,0.6,0.3,1.6-0.4,2l-7.1,3.9
			c-0.8,0.4-0.1,1.8,0.7,1.3l7.1-3.9c0.7-0.4,1.2-1.1,1.4-1.9C50.1,36.3,49.9,35.5,49.4,34.8z M32.5,30.5c0.5-0.3,1.1-0.1,1.4,0.3
			c0.4,0.5,0.2,1.4-0.4,1.7l-3.2,1.7h-5L32.5,30.5z M33.2,34.4l4.4-2.4c0.5-0.3,1.1-0.1,1.4,0.4c0.3,0.5,0.1,1.2-0.4,1.5l-3.9,2
			C34.5,35.2,33.9,34.7,33.2,34.4z M39.3,37.7c-4,2.2-8.6,3.2-13.1,2.8l6.5-0.8c1.2-0.2,2.1-1.1,2.3-2.2l8.1-4.3
			c0.5-0.2,1.1-0.1,1.4,0.3c0.4,0.5,0.2,1.3-0.4,1.6L39.3,37.7z"/>
		<path class="st1" d="M17.1,19.9c0.8,0,1.6-0.2,2.4-0.5c0.4-0.2,0.5-0.6,0.3-1c-0.2-0.4-0.6-0.5-1-0.3c-0.5,0.3-1.1,0.4-1.7,0.4
			c-2.2,0-4.1-1.8-4.1-4.1s1.8-4.1,4.1-4.1c2.2,0,4.1,1.8,4.1,4.1c0,0.7-0.2,1.4-0.5,2c-0.2,0.4-0.1,0.8,0.3,1
			c0.4,0.2,0.8,0.1,1-0.3c0.4-0.8,0.7-1.7,0.7-2.7c0-3-2.5-5.5-5.5-5.5s-5.5,2.5-5.5,5.5S14,19.9,17.1,19.9z"/>
		<path class="st1" d="M5.6,16.6l1.5,0.2c0.2,1,0.7,2,1.2,2.9L7.4,21c-0.4,0.6-0.4,1.4,0.1,1.9l1,1c0.5,0.5,1.3,0.6,1.9,0.1l1.2-0.9
			c0.9,0.6,1.9,1,2.9,1.2l0.2,1.5c0.1,0.7,0.7,1.2,1.4,1.2h1.5c0.7,0,1.3-0.5,1.4-1.2l0.2-1.5c1-0.2,2-0.7,2.9-1.2l1.2,0.9
			c0.6,0.4,1.4,0.4,1.9-0.1l1-1c0.5-0.5,0.6-1.3,0.1-1.9l-0.9-1.2c0.6-0.9,1-1.9,1.2-2.9l1.5-0.2c0.7-0.1,1.2-0.7,1.2-1.4v0h4.4v9.4
			c0,0.9,0.8,1.7,1.7,1.7H39c0.3,1.5,1.7,2.6,3.3,2.6c1.8,0,3.4-1.5,3.4-3.4s-1.5-3.4-3.4-3.4c-1.6,0-2.9,1.1-3.3,2.6h-3.1
			c-0.1,0-0.2-0.1-0.2-0.2v-9.4H39c0.3,1.5,1.7,2.6,3.3,2.6c1.8,0,3.4-1.5,3.4-3.4c0-1.8-1.5-3.4-3.4-3.4c-1.6,0-2.9,1.1-3.3,2.6
			h-3.4V4.3c0-0.1,0.1-0.2,0.2-0.2H39c0.3,1.5,1.7,2.6,3.3,2.6c1.8,0,3.4-1.5,3.4-3.4S44.1,0,42.3,0c-1.6,0-2.9,1.1-3.3,2.6h-3.1
			c-0.9,0-1.7,0.8-1.7,1.7v9.4h-4.4v0c0-0.7-0.5-1.3-1.2-1.4L27,12c-0.2-1-0.7-2-1.2-2.9l0.9-1.2c0.4-0.6,0.4-1.4-0.1-1.9l-1-1
			c-0.5-0.5-1.3-0.6-1.9-0.1l-1.2,0.9c-0.9-0.6-1.9-1-2.9-1.2L19.3,3c-0.1-0.7-0.7-1.2-1.4-1.2h-1.5c-0.7,0-1.3,0.5-1.4,1.2
			l-0.2,1.5c-1,0.2-2,0.7-2.9,1.2l-1.2-0.9C9.9,4.3,9.1,4.4,8.6,4.9l-1,1C7.1,6.5,7,7.3,7.4,7.9l0.9,1.2C7.8,10,7.4,11,7.2,12
			l-1.5,0.2c-0.7,0.1-1.2,0.7-1.2,1.4v1.5C4.4,15.9,4.9,16.5,5.6,16.6z M42.3,23.6c1,0,1.9,0.8,1.9,1.9c0,1-0.8,1.9-1.9,1.9
			c-1,0-1.9-0.8-1.9-1.9C40.4,24.4,41.2,23.6,42.3,23.6z M42.3,12.5c1,0,1.9,0.8,1.9,1.9s-0.8,1.9-1.9,1.9c-1,0-1.9-0.8-1.9-1.9
			S41.2,12.5,42.3,12.5z M42.3,1.5c1,0,1.9,0.8,1.9,1.9c0,1-0.8,1.9-1.9,1.9c-1,0-1.9-0.8-1.9-1.9C40.4,2.3,41.2,1.5,42.3,1.5z
			 M5.9,13.7l2-0.3c0.3,0,0.6-0.3,0.6-0.6c0.2-1.2,0.7-2.3,1.4-3.3c0.2-0.3,0.2-0.6,0-0.9L8.6,7l1-1l1.6,1.2c0.3,0.2,0.6,0.2,0.9,0
			c1-0.7,2.1-1.1,3.3-1.4c0.3-0.1,0.5-0.3,0.6-0.6l0.3-2h1.5l0.3,2c0,0.3,0.3,0.6,0.6,0.6C19.9,6,21,6.5,22,7.2
			c0.3,0.2,0.6,0.2,0.9,0L24.5,6l1,1l-1.2,1.6c-0.2,0.3-0.2,0.6,0,0.9c0.7,1,1.1,2.1,1.4,3.3c0.1,0.3,0.3,0.5,0.6,0.6l2,0.3v1.5
			l-2,0.3c-0.3,0-0.6,0.3-0.6,0.6c-0.2,1.2-0.7,2.3-1.4,3.3c-0.2,0.3-0.2,0.6,0,0.9l1.2,1.6l-1,1l-1.6-1.2c-0.3-0.2-0.6-0.2-0.9,0
			c-1,0.7-2.1,1.1-3.3,1.4c-0.3,0.1-0.5,0.3-0.6,0.6l-0.3,2h-1.5l-0.3-2c0-0.3-0.3-0.6-0.6-0.6c-1.2-0.2-2.3-0.7-3.3-1.4
			c-0.3-0.2-0.6-0.2-0.9,0l-1.6,1.2l-1-1l1.2-1.6c0.2-0.3,0.2-0.6,0-0.9c-0.7-1-1.1-2.1-1.4-3.3c-0.1-0.3-0.3-0.5-0.6-0.6l-2-0.3
			V13.7z"/>
	</g>
</g>
</svg>
