<?xml version="1.0" encoding="utf-8"?>
<!-- Generator: Adobe Illustrator 28.0.0, SVG Export Plug-In . SVG Version: 6.00 Build 0)  -->
<svg version="1.1" id="Layer_1" xmlns="http://www.w3.org/2000/svg" xmlns:xlink="http://www.w3.org/1999/xlink" x="0px" y="0px"
	 viewBox="0 0 50 50" style="enable-background:new 0 0 50 50;" xml:space="preserve">
<style type="text/css">
	.st0{clip-path:url(#SVGID_00000074401599265693697090000007548744290129518768_);}
	.st1{fill:#F7941D;}
</style>
<g>
	<defs>
		<rect id="SVGID_1_" y="0" width="50" height="50"/>
	</defs>
	<clipPath id="SVGID_00000053533686693675791680000006864021387242060680_">
		<use xlink:href="#SVGID_1_"  style="overflow:visible;"/>
	</clipPath>
	<g style="clip-path:url(#SVGID_00000053533686693675791680000006864021387242060680_);">
		<path class="st1" d="M40.7,16.9c0.1-0.1,0.3-0.5,0.1-0.8L37,9.2C37,9.2,37,9.1,36.8,9c-0.2-0.1-0.3-0.2-0.5-0.2H25.1H13.6
			c-0.3,0-0.5,0.2-0.7,0.4c-0.1,0.1-3.8,6.9-3.7,6.8c-0.1,0.3-0.2,0.5,0.1,0.8l15.1,19.5c0.1,0.2,0.4,0.3,0.6,0.3s0.5-0.2,0.6-0.3
			L40.7,16.9z M26.7,10.4h8l-4,4.8L26.7,10.4z M29.1,15.7H21l4.1-4.8L29.1,15.7z M19.3,15.3l-4.1-4.8h8.2L19.3,15.3z M29.6,17.2
			l-4.6,16l-4.6-16H29.6z M31.2,17.2h7.3L26.8,32.3L31.2,17.2z M32.3,15.7l3.9-4.7l2.6,4.7H32.3z M13.8,11l3.9,4.7h-6.5L13.8,11z
			 M18.8,17.2l4.4,15.1L11.5,17.2H18.8z"/>
		<path class="st1" d="M46.8,15.3c-1.5,0-2.7,1.2-2.7,2.7v8.3L43,27.8c-0.7-2.1-3.3-2.8-4.7-1.1l-4.7,6c-0.4,0.5-0.6,1.2-0.6,1.9
			v6.8H32c-0.5,0-0.9,0.4-0.9,0.9v6.5c0,0.5,0.3,0.8,0.8,0.8h13c0.5,0,0.8-0.3,0.8-0.8v-6.5c0-0.5-0.4-0.9-0.9-0.9h-1.2v-2.2
			c0-0.6,0.2-1.7,0.4-2l5.4-7.4c0.2-0.4,0.4-0.8,0.4-1.2V18C49.5,16.5,48.3,15.3,46.8,15.3z M44,48H32.6V43H44V48z M48,28.6
			c0,0.2-0.1,0.3-0.1,0.4l-5.4,7.3c-0.5,0.8-0.6,2.3-0.6,2.9v2.2h-7.5v-6.8c0-0.4,0.1-0.8,0.3-1l4.7-6c1.1-1.3,3,0.6,1.8,2l-0.8,1
			c-0.3,0.3-0.2,0.8,0.1,1.1c0.3,0.3,0.8,0.2,1.1-0.1l3.9-4.5c0.2-0.2,0.2-0.4,0.2-0.6V18c0-0.7,0.5-1.2,1.1-1.2
			c0.7,0,1.1,0.5,1.1,1.2L48,28.6L48,28.6z"/>
		<path class="st1" d="M18,41.5h-0.9v-6.8c0-0.7-0.2-1.4-0.6-1.9l-4.7-6c-1.4-1.7-4-1.1-4.7,1.1l-1.2-1.4v-8.3
			c0-1.5-1.2-2.7-2.7-2.7c-1.4,0-2.7,1.2-2.7,2.7v10.6c0,0.5,0.2,0.8,0.4,1.2l5.4,7.3c0.2,0.3,0.4,1.4,0.4,2v2.2H5.4
			c-0.5,0-0.9,0.4-0.9,0.9v6.5c0,0.5,0.3,0.8,0.8,0.8h13c0.5,0,0.8-0.3,0.8-0.8v-6.5C18.9,41.9,18.6,41.5,18,41.5z M7.5,36.4L2.1,29
			C2,28.9,2,28.8,2,28.6V18c0-0.7,0.5-1.2,1.1-1.2c0.7,0,1.1,0.5,1.1,1.2v8.6c0,0.2,0.1,0.4,0.2,0.6l3.9,4.5
			c0.3,0.3,0.8,0.4,1.1,0.1s0.4-0.8,0.1-1.1l-0.8-1c-1.2-1.4,0.8-3.3,1.8-2l4.7,5.9c0.2,0.3,0.3,0.7,0.3,1.1v6.8H8.1v-2.2
			C8.1,38.8,8,37.1,7.5,36.4z M17.4,48.1H6V43h11.4V48.1z"/>
		<path class="st1" d="M15.3,44.5c-0.6,0-1.1,0.5-1.1,1.1c0,0.6,0.5,1.1,1.1,1.1c0.6,0,1.1-0.5,1.1-1.1
			C16.4,44.9,15.9,44.5,15.3,44.5z"/>
		<path class="st1" d="M34.7,44.5c-0.6,0-1.1,0.5-1.1,1.1c0,0.6,0.5,1.1,1.1,1.1c0.6,0,1.1-0.5,1.1-1.1
			C35.8,44.9,35.3,44.5,34.7,44.5z"/>
		<path class="st1" d="M18,7c0.2,0.4,0.7,0.5,1.1,0.3c0.4-0.2,0.5-0.7,0.3-1.1l-1.8-3.4c-0.2-0.4-0.7-0.5-1.1-0.3
			c-0.4,0.2-0.5,0.7-0.3,1.1L18,7z"/>
		<path class="st1" d="M25,5.8c0.5,0,0.8-0.3,0.8-0.8V1.1c0-0.5-0.3-0.8-0.8-0.8c-0.5,0-0.8,0.3-0.8,0.8V5C24.2,5.5,24.5,5.8,25,5.8
			z"/>
		<path class="st1" d="M30.9,7.3C31.3,7.5,31.7,7.3,32,7l1.8-3.4c0.2-0.4,0.1-0.8-0.3-1.1c-0.4-0.2-0.8-0.1-1.1,0.3l-1.8,3.4
			C30.4,6.6,30.5,7,30.9,7.3z"/>
	</g>
</g>
</svg>
