<?xml version="1.0" encoding="utf-8"?>
<!-- Generator: Adobe Illustrator 28.0.0, SVG Export Plug-In . SVG Version: 6.00 Build 0)  -->
<svg version="1.1" id="Layer_1" xmlns="http://www.w3.org/2000/svg" xmlns:xlink="http://www.w3.org/1999/xlink" x="0px" y="0px"
	 viewBox="0 0 50 50" style="enable-background:new 0 0 50 50;" xml:space="preserve">
<style type="text/css">
	.st0{clip-path:url(#SVGID_00000152972408545695611030000014203022801594025907_);}
	.st1{fill:#F7941D;}
</style>
<g>
	<defs>
		<rect id="SVGID_1_" y="0" width="50" height="50"/>
	</defs>
	<clipPath id="SVGID_00000176003773813759355210000007500051550145996988_">
		<use xlink:href="#SVGID_1_"  style="overflow:visible;"/>
	</clipPath>
	<g style="clip-path:url(#SVGID_00000176003773813759355210000007500051550145996988_);">
		<path class="st1" d="M49.3,13.1C49.3,13.1,49.3,13.1,49.3,13.1L49.3,13.1l-3.2-0.5c-0.5-0.1-0.8-0.5-0.7-0.9
			c0-0.2,0.1-0.4,0.3-0.5l2.6-2c0.4-0.3,0.4-0.8,0.2-1.2l-3-4c-0.3-0.4-0.8-0.4-1.2-0.2l-2.6,2c-0.4,0.3-0.9,0.2-1.2-0.2
			c-0.1-0.2-0.2-0.4-0.2-0.6l0.5-3.2c0.1-0.5-0.2-0.9-0.7-0.9c0,0,0,0,0,0l-4.9-0.7c-0.5-0.1-0.9,0.2-0.9,0.7c0,0,0,0,0,0l-0.5,3.2
			c-0.1,0.5-0.5,0.8-0.9,0.7c-0.2,0-0.4-0.1-0.5-0.3l-2-2.6c-0.3-0.4-0.8-0.4-1.2-0.2l-2.5,1.9c-1.1-0.1-2.3-0.1-3.4,0
			c-7.4,0.8-13.2,6.7-13.9,14.1c0,0.2,0,0.5,0,0.7H9.1c-0.4,0-0.7,0.3-0.8,0.7l-0.6,2.7l-2.3-1.6c-0.3-0.2-0.8-0.2-1.1,0.1l-2.5,2.5
			c-0.3,0.3-0.3,0.7-0.1,1.1l1.6,2.3l-2.7,0.6C0.3,26.9,0,27.2,0,27.6v3.3c0,0.4,0.3,0.7,0.7,0.8l2.7,0.6l-1.6,2.3
			c-0.2,0.3-0.2,0.8,0.1,1.1l2.5,2.5c0.3,0.3,0.7,0.3,1.1,0.1l2.3-1.6l0.6,2.7C8.4,39.8,8.7,40,9.1,40h3.3c0.4,0,0.7-0.3,0.8-0.7
			l0.6-2.7l2.3,1.6c0.3,0.2,0.8,0.2,1.1-0.1l1.3-1.3v2.4c0,1.2,0.6,2.3,1.7,2.9v4.6c0,1.8,1.5,3.3,3.3,3.3h3.3
			c1.8,0,3.3-1.5,3.3-3.3v-4.6c1-0.6,1.7-1.7,1.7-2.9v-3.3c0-1.4,0.7-2.7,1.9-3.4c0.7-0.4,1.3-0.9,2-1.5l-1.1-1.2
			c-0.5,0.5-1.1,0.9-1.7,1.3c-1.6,1-2.7,2.8-2.7,4.8v3.3c0,0.9-0.7,1.7-1.7,1.7h-6.6c-0.9,0-1.7-0.7-1.7-1.7v-3.4
			c0-1.9-1-3.7-2.6-4.7c-6.6-4.1-8.6-12.8-4.4-19.4c2.6-4.1,7-6.6,11.9-6.6c0,0,0,0.1,0,0.1c0,0.2,0,0.4,0.2,0.6l2,2.6
			c0.2,0.3,0.2,0.6,0,0.9c-0.2,0.3-0.5,0.4-0.8,0.4L23,9.4c-0.5-0.1-0.9,0.2-0.9,0.7c0,0,0,0,0,0L21.4,15c-0.1,0.5,0.2,0.9,0.7,0.9
			c0,0,0,0,0,0l3.2,0.5c0.5,0.1,0.8,0.5,0.7,0.9c0,0.2-0.1,0.4-0.3,0.5l-2.6,2c-0.4,0.3-0.4,0.8-0.2,1.2l3,4
			c0.3,0.4,0.8,0.4,1.2,0.2l2.6-2c0.4-0.3,0.9-0.2,1.2,0.2c0.1,0.2,0.2,0.4,0.2,0.6l-0.5,3.2c-0.1,0.5,0.2,0.9,0.7,0.9c0,0,0,0,0,0
			l4.9,0.7c0,0,0.1,0,0.1,0c0.4,0,0.8-0.3,0.8-0.7l0.5-3.2c0.1-0.5,0.5-0.8,0.9-0.7c0.2,0,0.4,0.1,0.5,0.3l2,2.6
			c0.3,0.4,0.8,0.4,1.2,0.2l4-3c0.4-0.3,0.4-0.8,0.2-1.2l-2-2.6c-0.2-0.3-0.2-0.6,0-0.9c0.2-0.3,0.5-0.5,0.8-0.4l3.2,0.5
			c0.5,0.1,0.9-0.2,0.9-0.7c0,0,0,0,0,0l0.7-4.9C50.1,13.6,49.7,13.2,49.3,13.1z M21.8,42.5h6.6v1.7h-6.6V42.5z M21.8,45.8h6.6v0.8
			c0,0.9-0.7,1.7-1.7,1.7h-3.3c-0.9,0-1.7-0.7-1.7-1.7V45.8z M15.2,31.5c0.5,0.4,0.9,0.7,1.4,1c0.8,0.5,1.4,1.2,1.7,2.1l-1.8,1.8
			l-1.7-1.2C14,34.8,13,35,12.5,35.7c-0.1,0.2-0.2,0.4-0.3,0.6l-0.4,2.1h-2l-0.4-2.1c-0.2-0.9-1.1-1.5-2-1.3c-0.2,0-0.4,0.1-0.6,0.3
			l-1.7,1.2L3.6,35l1.2-1.7c0.5-0.8,0.3-1.8-0.4-2.3c-0.2-0.1-0.4-0.2-0.6-0.3l-2.1-0.4v-2l2.1-0.4c0.9-0.2,1.5-1.1,1.3-2
			c0-0.2-0.1-0.4-0.3-0.6l-1.2-1.7L5.1,22l1.7,1.2c0.8,0.5,1.8,0.3,2.3-0.4c0.1-0.2,0.2-0.4,0.3-0.6l0.1-0.7c0.1,1,0.4,1.9,0.7,2.8
			c-2.7,0.3-4.7,2.8-4.4,5.5c0.3,2.7,2.8,4.7,5.5,4.4C13,34,14.4,33,15.2,31.5z M13.9,30.4c-0.6,1.7-2.5,2.6-4.2,2
			c-1.7-0.6-2.6-2.5-2-4.2c0.5-1.3,1.7-2.2,3.1-2.2c0,0,0,0,0,0C11.6,27.6,12.6,29.1,13.9,30.4z M47.8,17.9l-2.4-0.3
			c-1.4-0.2-2.6,0.8-2.8,2.1c-0.1,0.7,0.1,1.3,0.5,1.8l1.5,1.9l-2.7,2l-1.5-1.9c-0.8-1.1-2.4-1.3-3.5-0.5c-0.5,0.4-0.9,1-1,1.6
			l-0.3,2.4l-3.3-0.5l0.3-2.4c0.2-1.4-0.8-2.6-2.1-2.8c-0.7-0.1-1.3,0.1-1.8,0.5l-1.9,1.5l-2-2.7l1.9-1.5c1.1-0.8,1.3-2.4,0.5-3.5
			c-0.4-0.5-1-0.9-1.6-1l-2.4-0.3l0.5-3.3l2.4,0.3c1.4,0.2,2.6-0.8,2.8-2.1c0.1-0.7-0.1-1.3-0.5-1.8l-1.5-1.9l2.7-2L31,5.5
			c0.8,1.1,2.4,1.3,3.5,0.5c0.5-0.4,0.9-1,1-1.6L35.8,2l3.3,0.5l-0.3,2.4c-0.2,1.4,0.8,2.6,2.1,2.8c0.7,0.1,1.3-0.1,1.8-0.5l1.9-1.5
			l2,2.7l-1.9,1.5c-1.1,0.8-1.3,2.4-0.5,3.5c0.4,0.5,1,0.9,1.6,1l2.4,0.3L47.8,17.9z"/>
		<path class="st1" d="M35.7,7.9c-3.7,0-6.6,3-6.6,6.6s3,6.6,6.6,6.6s6.6-3,6.6-6.6C42.3,10.9,39.3,7.9,35.7,7.9z M35.7,19.5
			c-2.7,0-5-2.2-5-5c0-2.7,2.2-5,5-5c2.7,0,5,2.2,5,5C40.6,17.3,38.4,19.5,35.7,19.5z"/>
		<path class="st1" d="M25.9,36.7h-1.7v2.5h1.7V36.7z"/>
		<path class="st1" d="M21.5,28.6c-5.1-2-7.7-7.8-5.7-12.9c0.8-2,2.2-3.7,4-4.8l-0.9-1.4c-5.4,3.4-7.1,10.6-3.6,16
			c1.3,2.1,3.3,3.7,5.6,4.6c2,0.8,3.4,2.8,3.4,4.9h1.7C25.9,32.2,24.2,29.6,21.5,28.6z"/>
		<path class="st1" d="M46.7,30.9h-5.8v1.7h5.8V30.9z"/>
		<path class="st1" d="M40.6,35.3l-1.1,1.3l5,4.1l1.1-1.3L40.6,35.3z"/>
		<path class="st1" d="M37.6,37.5h-1.7v5.8h1.7V37.5z"/>
		<path class="st1" d="M7.5,12.7l-6.6,1.7L1.2,16l6.6-1.7L7.5,12.7z"/>
		<path class="st1" d="M3.2,4.5l-1,1.3L8,10l1-1.3L3.2,4.5z"/>
		<path class="st1" d="M10.9,0L9.3,0.4L11,7.1l1.6-0.4L10.9,0z"/>
	</g>
</g>
</svg>
