<?xml version="1.0" encoding="utf-8"?>
<!-- Generator: Adobe Illustrator 28.0.0, SVG Export Plug-In . SVG Version: 6.00 Build 0)  -->
<svg version="1.1" id="Layer_1" xmlns="http://www.w3.org/2000/svg" xmlns:xlink="http://www.w3.org/1999/xlink" x="0px" y="0px"
	 viewBox="0 0 50 50" style="enable-background:new 0 0 50 50;" xml:space="preserve">
<style type="text/css">
	.st0{clip-path:url(#SVGID_00000160907471006786353390000011223465593108952991_);}
	.st1{fill:#F7941D;}
</style>
<g>
	<defs>
		<rect id="SVGID_1_" y="0" width="50" height="50"/>
	</defs>
	<clipPath id="SVGID_00000096059314756320817330000006615178104697066368_">
		<use xlink:href="#SVGID_1_"  style="overflow:visible;"/>
	</clipPath>
	<g style="clip-path:url(#SVGID_00000096059314756320817330000006615178104697066368_);">
		<path class="st1" d="M50,21h-1.8l-2.7,1.4c-0.3-0.2-0.6-0.3-1-0.4l-3.4-0.9v-0.4c1.5-1,2.4-2.8,2.4-4.6v-1.4
			c0-3.1-2.5-5.8-5.5-5.8c-0.2,0-0.3,0-0.5,0l0.9-2.1l-4.3-4.3l-2.5,1.6c-1-0.5-2-1-3-1.3L28.1,0h-6.1l-0.6,2.9
			c-1.1,0.3-2.1,0.7-3,1.3l-2.5-1.6l-4.3,4.3l0.9,2.1c0,0-0.1,0-0.1,0c-1.5,0-3,0.5-4.1,1.6c-1.1,1.1-1.7,2.5-1.7,4.1v1.6
			c0,1.8,0.9,3.6,2.4,4.6v0.4l-2.2,0.6l-4-2.3H0v16.7l7.9,2.6h1.5L9.7,38l2.4,1.5c0,1.3,1.1,2.4,2.4,2.4c0,1.3,1.1,2.4,2.4,2.4
			c0,1.3,1.1,2.4,2.4,2.4c0,1.3,1.2,2.4,2.5,2.4c0.5,0,1-0.2,1.4-0.4l0.7,0.6c0.4,0.4,1,0.6,1.6,0.6h0.1c1.3,0,2.4-1.1,2.5-2.4
			c1.3,0,2.4-1.1,2.4-2.4c1.3,0,2.4-1.1,2.4-2.4c1.3,0,2.4-1.1,2.4-2.5c0-0.1,0-0.2,0-0.2L50,32.8V21z M41.9,14.7v1.4
			c0,1.4-0.8,2.8-2,3.5l-0.4,0.2l0,2.6l4,1l-8.9,4.7v-2.2c0-1.1-0.4-2.1-1.2-2.8l2.8-0.7v-2.6l-0.4-0.2c-1.2-0.7-2-2.1-2-3.5v-1.6
			c0-1.1,0.4-2.1,1.2-2.9c0.8-0.8,1.8-1.2,2.9-1.1C40.2,10.6,41.9,12.4,41.9,14.7z M26.2,27.4l-3.7-1.2c-1.7-0.5-3.5-0.6-5.2-0.2
			l-0.5,0.1v-0.2c0-1.1,0.8-2.1,1.8-2.3l4.6-1.2v-2.6L23,19.6c-1.2-0.7-2-2.1-2-3.5v-1.6c0-1.1,0.4-2.1,1.2-2.9
			c0.8-0.8,1.8-1.2,2.9-1.1c2.2,0.1,3.9,2,3.9,4.2v1.4c0,1.4-0.8,2.8-2,3.5l-0.4,0.2l0,2.6l4.6,1.2c1.1,0.3,1.8,1.2,1.8,2.3v3
			L32.9,29h-0.5l-5-1.4C27,27.5,26.6,27.5,26.2,27.4z M17.1,12.1c1.5-2.9,4.6-4.8,7.9-4.8c3.3,0,6.3,1.9,7.9,4.7
			c-0.4,0.8-0.6,1.6-0.6,2.5v1.6c0,1.8,0.9,3.6,2.4,4.6v0.4L31.5,22l-3.2-0.8v-0.4c1.5-1,2.4-2.8,2.4-4.6v-1.4
			c0-3.1-2.5-5.8-5.5-5.8c-1.5,0-3,0.5-4.1,1.6c-1.1,1.1-1.7,2.5-1.7,4.1v1.6c0,1.8,0.9,3.6,2.4,4.6v0.4L18.5,22l-3.2-0.8v-0.4
			c1.5-1,2.4-2.8,2.4-4.6v-1.4C17.7,13.8,17.5,12.9,17.1,12.1z M13.4,7.2L16,4.6l2.3,1.5l0.4-0.3c1.1-0.7,2.3-1.2,3.5-1.4l0.5-0.1
			l0.6-2.6h3.5l0.6,2.6l0.5,0.1c1.2,0.3,2.4,0.8,3.5,1.4l0.4,0.3L34,4.6l2.6,2.6l-0.9,2.1c-0.6,0.3-1.2,0.6-1.7,1.1
			c0,0-0.1,0.1-0.1,0.1c-1.9-3-5.3-4.9-8.9-4.9c-3.6,0-7,1.9-8.9,5c-0.5-0.5-1.1-1-1.8-1.3L13.4,7.2z M10.5,22.4v-2.6l-0.4-0.2
			c-1.2-0.7-2-2.1-2-3.5v-1.6c0-1.1,0.4-2.1,1.2-2.9c0.8-0.8,1.8-1.2,2.9-1.1c2.2,0.1,3.9,2,3.9,4.2v1.4c0,1.4-0.8,2.8-2,3.5
			l-0.4,0.2l0,2.6l2.8,0.7c-0.7,0.7-1.2,1.7-1.2,2.8v0.6l-2.5,0.6l0.1-0.2l0-1.5l-4.3-2.5L10.5,22.4z M1.6,21h0.6L8,24.4L5.1,36.1
			l-3.5-1.2V21z M8.2,37.1l-1.6-0.5l2.8-11.4l1.8,1.1v0.2L8.2,37.1L8.2,37.1z M13.7,39.4c0-0.2,0.1-0.5,0.3-0.6l1.4-1.4
			c0.2-0.2,0.4-0.3,0.6-0.3c0.5,0,0.9,0.4,0.9,0.9c0,0.2-0.1,0.5-0.3,0.6l-1.4,1.4c-0.2,0.2-0.4,0.3-0.6,0.3
			C14.1,40.3,13.7,39.9,13.7,39.4z M16.1,41.8c0-0.2,0.1-0.5,0.3-0.6l1.4-1.4c0.2-0.2,0.4-0.3,0.6-0.3c0.5,0,0.9,0.4,0.9,0.9
			c0,0.2-0.1,0.5-0.3,0.6l-1.4,1.4c-0.2,0.2-0.4,0.3-0.6,0.3C16.5,42.7,16.1,42.3,16.1,41.8z M18.5,44.3c0-0.2,0.1-0.5,0.3-0.6
			l1.4-1.4c0.2-0.2,0.4-0.3,0.6-0.3c0.5,0,0.9,0.4,0.9,0.9c0,0.2-0.1,0.5-0.3,0.6l-1.4,1.4c-0.2,0.2-0.4,0.3-0.6,0.3
			C19,45.2,18.5,44.8,18.5,44.3z M21.9,47.6c-0.5,0-0.9-0.4-0.9-0.9c0-0.2,0.1-0.5,0.3-0.6l1.4-1.4c0.2-0.2,0.4-0.3,0.6-0.3
			c0.5,0,0.9,0.4,0.9,0.9c0,0.2-0.1,0.5-0.3,0.6l-1.4,1.4C22.3,47.5,22.1,47.6,21.9,47.6z M25.8,48.4h-0.1c-0.2,0-0.4-0.1-0.6-0.2
			l-0.6-0.5l0.6-0.6c0.2-0.2,0.4-0.5,0.5-0.7l0.7,0.6c0.2,0.2,0.3,0.4,0.3,0.6C26.6,48,26.2,48.4,25.8,48.4z M33,41.1h-0.1
			c-0.2,0-0.4-0.1-0.6-0.2l-4.4-3.6l-1,1.2l4.2,3.5c0.2,0.2,0.3,0.4,0.3,0.6c0,0.5-0.4,0.8-0.8,0.8h-0.2c-0.2,0-0.4-0.1-0.5-0.2
			l-4.4-3.6l-1,1.2l4.2,3.5c0.2,0.2,0.3,0.4,0.3,0.6c0,0.5-0.4,0.8-0.8,0.8c-0.3,0-0.6-0.1-0.8-0.3l-1.8-1.5
			c-0.4-0.8-1.2-1.4-2.2-1.4c0-1.3-1.1-2.4-2.4-2.4c0-1.3-1.1-2.4-2.4-2.4c0-1.3-1.1-2.4-2.5-2.4c-0.7,0-1.3,0.3-1.8,0.7l-1.4,1.4
			c-0.1,0.1-0.2,0.2-0.2,0.3l-2.5-1.5l2.2-7.6l5.4-1.2c1.4-0.3,2.9-0.2,4.3,0.2l1.2,0.4l-4,2c-0.9,0.5-1.5,1.4-1.5,2.4v0.2
			c0,1.5,1.2,2.7,2.7,2.7c0.5,0,1-0.1,1.4-0.4l3-1.8c0.6-0.4,1.4-0.3,1.9,0.2l6.8,6.1c0.2,0.2,0.3,0.4,0.3,0.6
			C33.9,40.7,33.5,41.1,33,41.1z M48.4,31.8l-13.6,6.8c0,0-0.1-0.1-0.1-0.1l-6.8-6.1c-0.6-0.5-1.4-0.8-2.2-0.8
			c-0.6,0-1.2,0.2-1.7,0.5l-3,1.8c-0.2,0.1-0.4,0.2-0.6,0.2c-0.6,0-1.1-0.5-1.1-1.1v-0.2c0-0.4,0.2-0.8,0.6-1l4.5-2.2
			c0.8-0.4,1.7-0.5,2.5-0.2l5.1,1.4l1.2,0l15.1-8V31.8z"/>
	</g>
</g>
</svg>
