<?xml version="1.0" encoding="utf-8"?>
<!-- Generator: Adobe Illustrator 28.0.0, SVG Export Plug-In . SVG Version: 6.00 Build 0)  -->
<svg version="1.1" id="Layer_1" xmlns="http://www.w3.org/2000/svg" xmlns:xlink="http://www.w3.org/1999/xlink" x="0px" y="0px"
	 viewBox="0 0 38 40" style="enable-background:new 0 0 38 40;" xml:space="preserve">
<style type="text/css">
	.st0{fill:#F7941D;}
</style>
<path class="st0" d="M34.3,18.5c0.1,1,0.1,2,0,3l2.5,1.5c0.7,0.4,1.1,1.2,0.9,2.1c-0.9,3.3-2.7,6.2-5,8.7c-0.6,0.5-1.6,0.7-2.3,0.3
	l-2.5-1.5c-0.8,0.6-1.6,1.1-2.6,1.5V37c0,0.9-0.5,1.6-1.4,1.8c-3.2,0.9-6.7,0.9-9.9,0c-0.9-0.2-1.4-0.9-1.4-1.8v-2.9
	c-0.9-0.4-1.8-0.9-2.6-1.5l-2.5,1.5c-0.7,0.4-1.6,0.2-2.3-0.3c-2.3-2.4-4.1-5.4-5-8.7C0,24.2,0.4,23.4,1.1,23l2.5-1.5
	c-0.1-0.5-0.1-0.9-0.1-1.4c0-0.5,0-1,0.1-1.6l-2.5-1.4C0.4,16.7,0,15.9,0.2,15c0.9-3.3,2.7-6.2,5-8.7C5.9,5.8,6.8,5.6,7.5,6L10,7.5
	c0.8-0.6,1.6-1.1,2.6-1.5V3.1c0-0.9,0.5-1.6,1.4-1.8c3.2-0.9,6.7-0.9,9.9,0c0.9,0.2,1.4,0.9,1.4,1.8V6c0.9,0.4,1.8,0.9,2.6,1.5
	L30.4,6c0.7-0.4,1.6-0.2,2.3,0.3c2.3,2.4,4.1,5.4,5,8.7c0.2,0.9-0.2,1.7-0.9,2.1L34.3,18.5z M30.2,23.5c0.6-3.3,0.6-3.7,0-7l3.4-2
	C33,13,32.1,11.4,31,10.1l-3.4,2c-2.4-2.1-2.8-2.3-5.9-3.4v-4c-0.9-0.2-1.7-0.2-2.6-0.2c-0.9,0-1.8,0.1-2.7,0.2v4
	c-3.1,1.1-3.4,1.3-5.9,3.4l-3.4-2c-1.2,1.3-2,2.9-2.7,4.5l3.4,2c-0.6,3.3-0.6,3.7,0,7l-3.4,2C4.9,27.1,5.8,28.7,7,30l3.4-2
	c2.4,2.1,2.8,2.3,5.9,3.4v4c0.9,0.2,1.7,0.2,2.6,0.2c0.9,0,1.8-0.1,2.7-0.2v-4c3.1-1.1,3.4-1.3,5.9-3.4l3.4,2c1.2-1.3,2-2.9,2.7-4.5
	L30.2,23.5z M19,12.5c4.1,0,7.5,3.4,7.5,7.5c0,4.1-3.4,7.5-7.5,7.5c-4.1,0-7.5-3.4-7.5-7.5C11.5,15.9,14.9,12.5,19,12.5z M19,23.8
	c2,0,3.8-1.6,3.8-3.8c0-2-1.7-3.8-3.8-3.8c-2.1,0-3.8,1.7-3.8,3.8C15.2,22.1,16.9,23.8,19,23.8z"/>
</svg>
