<?xml version="1.0" encoding="utf-8"?>
<!-- Generator: Adobe Illustrator 28.0.0, SVG Export Plug-In . SVG Version: 6.00 Build 0)  -->
<svg version="1.1" id="Layer_1" xmlns="http://www.w3.org/2000/svg" xmlns:xlink="http://www.w3.org/1999/xlink" x="0px" y="0px"
	 viewBox="0 0 41 42" style="enable-background:new 0 0 41 42;" xml:space="preserve">
<style type="text/css">
	.st0{fill:#F7941D;}
</style>
<path class="st0" d="M17.5,8.6V7.2h-0.2c0.5-1,1.2-1.9,2-2.7c3-3,7.3-4.2,11.4-3.2c1,0.2,1.7,1,2,2c0.2,0.9,0,2-0.7,2.7l-4.6,4.5
	l0.4,2.6l2.6,0.4l4.6-4.6c0.6-0.6,1.6-0.9,2.7-0.7c0.9,0.3,1.6,1,1.9,2c1,4.1-0.2,8.4-3.2,11.4c-0.7,0.7-1.5,1.3-2.3,1.8L31.7,21
	c-0.2-0.1-0.3-0.2-0.4-0.3c0.9-0.4,1.7-0.9,2.4-1.7c1.6-1.6,2.5-3.8,2.5-5.9l-4.5,4.5l-7-1.2l-1.2-7L28,4.8h-0.1
	c-2.2,0-4.3,0.8-5.9,2.4c-2,2-2.8,4.7-2.3,7.4l-2.3-2.3V8.6z M8.3,36.5l9.3-9.3c0,1.5,0.5,2.9,1.2,4.1l-7.8,7.8
	C9.7,40.4,8,41,6.4,41c-1.7,0-3.4-0.6-4.5-1.9C0.6,38,0,36.3,0,34.6c0-1.6,0.6-3.3,1.9-4.5l10.5-10.5l2.7,2.7L4.5,32.7
	c-0.5,0.5-0.8,1.2-0.8,1.9c0,0.7,0.3,1.4,0.8,1.9C5.5,37.5,7.3,37.5,8.3,36.5z M39.1,31.9c1.1,1.2,1.1,3,0,4.1L35,40.2
	c-1.2,1.1-3,1.1-4.1,0L21.7,31c-1.8-1.8-2.1-4.5-1.1-6.6L12.3,16H7.5L0,6l5-5l10,7.5v4.9l8.3,8.3c2.2-1.1,4.8-0.7,6.7,1.1L39.1,31.9
	z"/>
</svg>
